<?xml version="1.0" encoding="utf-8"?>
<!-- Generator: Adobe Illustrator 27.4.0, SVG Export Plug-In . SVG Version: 6.00 Build 0)  -->
<svg version="1.1" id="Capa_1" xmlns="http://www.w3.org/2000/svg" xmlns:xlink="http://www.w3.org/1999/xlink" x="0px" y="0px"
	 viewBox="0 0 260.9 259.9" style="enable-background:new 0 0 260.9 259.9;" xml:space="preserve">
<style type="text/css">
	.st0{fill:#B38015;}
</style>
<g>
	<path class="st0" d="M113.9,0c11.8,0,23.7,0,35.5,0c-2.1,0.1-4.3,0.3-6.4,0.4c31.3,3.5,58.5,15.7,80.7,38.2
		c22.1,22.4,35,49.3,37.3,81c0.1-1.2,0.3-2.3,0.4-3.5c0,9.6,0,19.2,0,28.8c-0.1-1.6-0.3-3.2-0.4-4.8c-0.1,0-0.2,0-0.3,0
		c-0.1,1-0.2,1.9-0.3,2.9c-0.3,3.7-0.2,7.5-0.9,11.2c-2.1,11.4-5.6,22.4-10.7,32.8c-5.5,11.4-12.6,21.8-21.2,31.2
		c-9.5,10.4-20.4,19.1-32.6,25.9c-10.2,5.7-21,10.1-32.4,12.7c-5.7,1.3-11.6,2.4-17.4,3c-5.1,0.5-10.3,0.3-15.5,0.3
		c-5.6,0.1-11.1-0.1-16.7-0.9c-10.1-1.4-19.8-4.1-29.3-7.8C65,243.9,49,232.7,35.5,218c-11-11.9-19.3-25.5-25.2-40.6
		c-5.9-15-8.8-30.7-8.8-46.8c0-6.4,0.7-12.8,1.4-19.1c1.1-9.9,3.9-19.4,7.5-28.6c5.8-14.8,14-28,24.6-39.8
		c5.6-6.2,11.7-11.8,18.3-16.8C64.5,17.9,76.6,11.5,89.9,7c9.5-3.2,19.3-5.5,29.3-6.1c0.4,0,0.8-0.1,1.1-0.2c0-0.1,0-0.2,0-0.3
		C118.2,0.3,116,0.2,113.9,0z M71.1,93.4c-0.1,0.3-0.2,0.5-0.3,0.8c-2.2,9.2-3.4,18.5-4,27.9c-0.7,11.4,0.1,22.8,1.9,34.1
		c0.1,0.5,0.5,1.2,1,1.4c5.7,2.5,11.4,5.2,17.3,7.4c10.8,4,22.1,6.2,33.6,7.1c6.7,0.5,13.4,0.6,20.1,0.1c6.4-0.5,12.8-1.3,19.1-2.7
		c11.6-2.5,22.6-6.4,33.2-11.7c0.8-0.4,1.2-0.9,1.3-1.8c0.2-1.4,0.4-2.7,0.6-4.1c0.5-5.2,0.9-10.4,1.3-15.5
		c0.6-7.5,0.2-14.9-0.7-22.3c-0.8-6.6-2.1-13.1-3.1-19.7c-0.1-0.8-0.4-1-1.2-0.7c-4.2,1.7-8.5,3.5-12.8,5c-12.6,4.5-25.6,7-38.9,7.7
		c-9.9,0.5-19.7,0.1-29.5-1.4c-10.8-1.7-21.2-4.4-31.3-8.4C76.2,95.6,73.7,94.5,71.1,93.4z M71.2,168.4c0.4,1.2,0.6,2,0.8,2.8
		c2.1,6.2,3.9,12.5,6.3,18.7c2.1,5.4,4.7,10.6,7.2,15.9c0.4,0.9,1.3,1.7,2.1,2.2c2.1,1.1,4.3,2.1,6.6,2.8c9.5,2.6,19.3,3.4,29.1,3.8
		c11.4,0.4,22.7,0.2,34-1.5c4.7-0.7,9.3-1.8,13.9-3c3.4-0.9,5.8-3,7.4-6.4c4.6-9.7,8.7-19.5,11.7-29.8c0.5-1.7,0.9-3.3,1.5-5.4
		c-19.4,8.7-39.3,13.1-60.3,13.1C110.6,181.6,90.6,177.2,71.2,168.4z M84.6,56.5c-0.4,0.9-0.8,1.8-1.2,2.6
		c-3.7,7.3-6.7,14.9-9.2,22.6c-0.8,2.6-0.8,2.6,1.7,3.7c15,6.8,30.8,10.7,47.2,11.7c14.1,0.9,28.1-0.4,41.8-3.9
		c8.2-2.1,16.1-5,23.8-8.5c0.6-0.3,1-0.5,0.7-1.4c-2.9-8.9-6.3-17.5-10.5-25.8c-0.2-0.4-0.4-0.7-0.8-1.4c-0.7,3.4-3.2,4.5-5.7,5.6
		c-1,0.4-2.1,0.8-3.2,1.1c-10.5,3-21.2,3.6-32,4c-9.7,0.3-19.3-0.1-28.9-1.2c-5.8-0.7-11.5-1.6-17-3.6c-2.7-1-5.5-2.2-6.4-5.4
		C84.9,56.6,84.8,56.6,84.6,56.5z M130.8,63.8c4.1-0.1,8.2-0.3,12.2-0.4c6.8-0.2,13.6-1,20.3-2.3c3.3-0.7,6.7-1.3,9.7-3.1
		c2.1-1.3,2.2-1.9-0.2-2.9c-2.3-1.1-4.8-1.9-7.3-2.5c-9.7-2.3-19.6-2.9-29.5-3.1c-8-0.2-16-0.1-23.9,0.9c-5.7,0.7-11.4,1.7-17.1,2.8
		c-2.1,0.4-4,1.6-5.9,2.6c-1.1,0.6-1.1,1.1,0,1.8c0.8,0.5,1.7,1.1,2.6,1.4c3.6,1,7.1,2.1,10.7,2.7C111.9,63.2,121.4,63.7,130.8,63.8
		z"/>
</g>
</svg>
